<?xml version="1.0" standalone="no"?><!DOCTYPE svg PUBLIC "-//W3C//DTD SVG 1.1//EN" "http://www.w3.org/Graphics/SVG/1.1/DTD/svg11.dtd"><svg class="icon" width="200px" height="200.00px" viewBox="0 0 1024 1024" version="1.1" xmlns="http://www.w3.org/2000/svg"><path fill="#ffb232" d="M243.072 512l347.818667 347.776-72.448 72.448-384-384q-1.749333-1.792-3.370667-3.754667-1.578667-1.92-2.986667-4.010666-1.365333-2.133333-2.56-4.309334-1.194667-2.218667-2.133333-4.565333-0.981333-2.304-1.706667-4.693333-0.725333-2.432-1.237333-4.906667-0.469333-2.474667-0.725333-4.949333Q119.466667 514.474667 119.466667 512q0-2.517333 0.256-5.034667 0.256-2.474667 0.725333-4.949333 0.512-2.474667 1.237333-4.864 0.725333-2.432 1.706667-4.736 0.938667-2.346667 2.133333-4.565333 1.152-2.218667 2.56-4.266667 1.408-2.133333 2.986667-4.053333 1.621333-1.962667 3.413333-3.754667l384-384 72.405334 72.448L243.072 512z"  /></svg>