<?xml version="1.0" standalone="no"?><!DOCTYPE svg PUBLIC "-//W3C//DTD SVG 1.1//EN" "http://www.w3.org/Graphics/SVG/1.1/DTD/svg11.dtd"><svg class="icon" width="200px" height="200.00px" viewBox="0 0 1024 1024" version="1.1" xmlns="http://www.w3.org/2000/svg"><path fill="#000000" d="M512 96C335.008 96 192 235.968 192 407.776c0 161.184 128.608 347.232 306.4 512.32l3.968 4.032A12.96 12.96 0 0 0 512 928a13.312 13.312 0 0 0 10.016-4.288l3.616-3.648C703.04 755.744 832 569.088 832 407.744 832 236 688.992 96 512 96z m0-64c212.064 0 384 168.32 384 375.776 0 228.16-219.808 460.064-326.848 559.232A77.312 77.312 0 0 1 512 992c-22.656 0-43.232-9.6-57.152-24.96C348.064 867.84 128 635.872 128 407.744 128 200.32 299.936 32 512 32z m0 488.192c63.904 0 115.136-50.272 115.136-111.68 0-61.248-51.36-111.616-115.136-111.616-63.776 0-115.136 50.368-115.136 111.648 0 61.248 51.36 111.648 115.136 111.648z m0 64c-98.816 0-179.136-78.752-179.136-175.68 0-96.896 80.32-175.616 179.136-175.616s179.136 78.72 179.136 175.648c0 96.896-80.032 175.648-179.136 175.648z"  /></svg>