<?xml version="1.0" standalone="no"?><!DOCTYPE svg PUBLIC "-//W3C//DTD SVG 1.1//EN" "http://www.w3.org/Graphics/SVG/1.1/DTD/svg11.dtd"><svg class="icon" width="200px" height="200.00px" viewBox="0 0 1024 1024" version="1.1" xmlns="http://www.w3.org/2000/svg"><path d="M800 640l-256 0L544 512l256 0C819.2 512 832 499.2 832 480 832 460.8 819.2 448 800 448L556.8 448l230.4-230.4c12.8-12.8 12.8-32 0-44.8s-32-12.8-44.8 0L512 403.2 281.6 166.4c-12.8-12.8-32-12.8-44.8 0s-12.8 32 0 44.8L467.2 448 224 448C204.8 448 192 460.8 192 480 192 499.2 204.8 512 224 512l256 0 0 128-256 0C204.8 640 192 652.8 192 672 192 691.2 204.8 704 224 704l256 0 0 160C480 883.2 492.8 896 512 896s32-12.8 32-32L544 704l256 0c19.2 0 32-12.8 32-32C832 652.8 819.2 640 800 640z" /></svg>